# xmcd
#
# Track frame offsets:
#	150
#	25258
#	44117
#	64270
#	81553
#	97542
#	113256
#	132671
#	156119
#	173848
#	186309
#	200604
#	218549
#	237217
#
# Disc length: 3439 seconds
#
# Revision: 0
# Processed by: cddbd v1.5.2PL0 Copyright (c) Steve Scherf et al.
# Submitted via: audiograbber 1.83.01
#
DISCID=bf0d6d0e
DTITLE=J.J. Cale and Eric Clapton - The Road to Escondido
DYEAR=2007
DGENRE=Blues
TTITLE0=Danger
TTITLE1=Heads In Georgia
TTITLE2=Missing Person
TTITLE3=When the War Is Over
TTITLE4=Sporting Life Blues
TTITLE5=Dead End Road
TTITLE6=It's Easy
TTITLE7=Hard to Thrill
TTITLE8=Anyway the Wind Blows
TTITLE9=Three Little Girls
TTITLE10=Don't Cry Sister
TTITLE11=Last Will and Testament
TTITLE12=Who Am I Telling You?
TTITLE13=Ride the River
EXTD=
EXTT0=
EXTT1=
EXTT2=
EXTT3=
EXTT4=
EXTT5=
EXTT6=
EXTT7=
EXTT8=
EXTT9=
EXTT10=
EXTT11=
EXTT12=
EXTT13=
PLAYORDER=
